  0
SECTION
  2
HEADER
  9
$ACADVER
  1
AC1018
  9
$ACADMAINTVER
 70
     0
  9
$DWGCODEPAGE
  3
ANSI_932
  9
$INSBASE
 10
0.0
 20
0.0
 30
0.0
  9
$EXTMIN
 10
1.000000000000000E+20
 20
1.000000000000000E+20
 30
1.000000000000000E+20
  9
$EXTMAX
 10
-1.000000000000000E+20
 20
-1.000000000000000E+20
 30
-1.000000000000000E+20
  9
$LIMMIN
 10
0.0
 20
0.0
  9
$LIMMAX
 10
12.0
 20
9.0
  9
$ORTHOMODE
 70
     0
  9
$REGENMODE
 70
     1
  9
$FILLMODE
 70
     1
  9
$QTEXTMODE
 70
     0
  9
$MIRRTEXT
 70
     1
  9
$LTSCALE
 40
1.0
  9
$ATTMODE
 70
     1
  9
$TEXTSIZE
 40
0.2
  9
$TRACEWID
 40
0.05
  9
$TEXTSTYLE
  7
Standard
  9
$CLAYER
  8
0
  9
$CELTYPE
  6
ByLayer
  9
$CECOLOR
 62
   256
  9
$CELTSCALE
 40
1.0
  9
$DISPSILH
 70
     0
  9
$DIMSCALE
 40
1.0
  9
$DIMASZ
 40
0.18
  9
$DIMEXO
 40
0.0625
  9
$DIMDLI
 40
0.38
  9
$DIMRND
 40
0.0
  9
$DIMDLE
 40
0.0
  9
$DIMEXE
 40
0.18
  9
$DIMTP
 40
0.0
  9
$DIMTM
 40
0.0
  9
$DIMTXT
 40
0.18
  9
$DIMCEN
 40
0.09
  9
$DIMTSZ
 40
0.0
  9
$DIMTOL
 70
     0
  9
$DIMLIM
 70
     0
  9
$DIMTIH
 70
     1
  9
$DIMTOH
 70
     1
  9
$DIMSE1
 70
     0
  9
$DIMSE2
 70
     0
  9
$DIMTAD
 70
     0
  9
$DIMZIN
 70
     0
  9
$DIMBLK
  1

  9
$DIMASO
 70
     1
  9
$DIMSHO
 70
     1
  9
$DIMPOST
  1

  9
$DIMAPOST
  1

  9
$DIMALT
 70
     0
  9
$DIMALTD
 70
     2
  9
$DIMALTF
 40
25.4
  9
$DIMLFAC
 40
1.0
  9
$DIMTOFL
 70
     0
  9
$DIMTVP
 40
0.0
  9
$DIMTIX
 70
     0
  9
$DIMSOXD
 70
     0
  9
$DIMSAH
 70
     0
  9
$DIMBLK1
  1

  9
$DIMBLK2
  1

  9
$DIMSTYLE
  2
Standard
  9
$DIMCLRD
 70
     0
  9
$DIMCLRE
 70
     0
  9
$DIMCLRT
 70
     0
  9
$DIMTFAC
 40
1.0
  9
$DIMGAP
 40
0.09
  9
$DIMJUST
 70
     0
  9
$DIMSD1
 70
     0
  9
$DIMSD2
 70
     0
  9
$DIMTOLJ
 70
     1
  9
$DIMTZIN
 70
     0
  9
$DIMALTZ
 70
     0
  9
$DIMALTTZ
 70
     0
  9
$DIMUPT
 70
     0
  9
$DIMDEC
 70
     4
  9
$DIMTDEC
 70
     4
  9
$DIMALTU
 70
     2
  9
$DIMALTTD
 70
     2
  9
$DIMTXSTY
  7
Standard
  9
$DIMAUNIT
 70
     0
  9
$DIMADEC
 70
     0
  9
$DIMALTRND
 40
0.0
  9
$DIMAZIN
 70
     0
  9
$DIMDSEP
 70
    46
  9
$DIMATFIT
 70
     3
  9
$DIMFRAC
 70
     0
  9
$DIMLDRBLK
  1

  9
$DIMLUNIT
 70
     2
  9
$DIMLWD
 70
    -2
  9
$DIMLWE
 70
    -2
  9
$DIMTMOVE
 70
     0
  9
$LUNITS
 70
     2
  9
$LUPREC
 70
     4
  9
$SKETCHINC
 40
0.1
  9
$FILLETRAD
 40
0.5
  9
$AUNITS
 70
     0
  9
$AUPREC
 70
     0
  9
$MENU
  1
.
  9
$ELEVATION
 40
0.0
  9
$PELEVATION
 40
0.0
  9
$THICKNESS
 40
0.0
  9
$LIMCHECK
 70
     0
  9
$CHAMFERA
 40
0.5
  9
$CHAMFERB
 40
0.5
  9
$CHAMFERC
 40
1.0
  9
$CHAMFERD
 40
0.0
  9
$SKPOLY
 70
     0
  9
$TDCREATE
 40
2457974.849895834
  9
$TDUCREATE
 40
2457975.183229167
  9
$TDUPDATE
 40
2457974.849895845
  9
$TDUUPDATE
 40
2457975.183229178
  9
$TDINDWG
 40
0.0000000116
  9
$TDUSRTIMER
 40
0.0000000116
  9
$USRTIMER
 70
     1
  9
$ANGBASE
 50
0.0
  9
$ANGDIR
 70
     0
  9
$PDMODE
 70
     0
  9
$PDSIZE
 40
0.0
  9
$PLINEWID
 40
0.0
  9
$SPLFRAME
 70
     0
  9
$SPLINETYPE
 70
     6
  9
$SPLINESEGS
 70
     8
  9
$HANDSEED
  5
49
  9
$SURFTAB1
 70
     6
  9
$SURFTAB2
 70
     6
  9
$SURFTYPE
 70
     6
  9
$SURFU
 70
     6
  9
$SURFV
 70
     6
  9
$UCSBASE
  2

  9
$UCSNAME
  2

  9
$UCSORG
 10
0.0
 20
0.0
 30
0.0
  9
$UCSXDIR
 10
1.0
 20
0.0
 30
0.0
  9
$UCSYDIR
 10
0.0
 20
1.0
 30
0.0
  9
$UCSORTHOREF
  2

  9
$UCSORTHOVIEW
 70
     0
  9
$UCSORGTOP
 10
0.0
 20
0.0
 30
0.0
  9
$UCSORGBOTTOM
 10
0.0
 20
0.0
 30
0.0
  9
$UCSORGLEFT
 10
0.0
 20
0.0
 30
0.0
  9
$UCSORGRIGHT
 10
0.0
 20
0.0
 30
0.0
  9
$UCSORGFRONT
 10
0.0
 20
0.0
 30
0.0
  9
$UCSORGBACK
 10
0.0
 20
0.0
 30
0.0
  9
$PUCSBASE
  2

  9
$PUCSNAME
  2

  9
$PUCSORG
 10
0.0
 20
0.0
 30
0.0
  9
$PUCSXDIR
 10
1.0
 20
0.0
 30
0.0
  9
$PUCSYDIR
 10
0.0
 20
1.0
 30
0.0
  9
$PUCSORTHOREF
  2

  9
$PUCSORTHOVIEW
 70
     0
  9
$PUCSORGTOP
 10
0.0
 20
0.0
 30
0.0
  9
$PUCSORGBOTTOM
 10
0.0
 20
0.0
 30
0.0
  9
$PUCSORGLEFT
 10
0.0
 20
0.0
 30
0.0
  9
$PUCSORGRIGHT
 10
0.0
 20
0.0
 30
0.0
  9
$PUCSORGFRONT
 10
0.0
 20
0.0
 30
0.0
  9
$PUCSORGBACK
 10
0.0
 20
0.0
 30
0.0
  9
$USERI1
 70
     0
  9
$USERI2
 70
     0
  9
$USERI3
 70
     0
  9
$USERI4
 70
     0
  9
$USERI5
 70
     0
  9
$USERR1
 40
0.0
  9
$USERR2
 40
0.0
  9
$USERR3
 40
0.0
  9
$USERR4
 40
0.0
  9
$USERR5
 40
0.0
  9
$WORLDVIEW
 70
     1
  9
$SHADEDGE
 70
     3
  9
$SHADEDIF
 70
    70
  9
$TILEMODE
 70
     1
  9
$MAXACTVP
 70
    64
  9
$PINSBASE
 10
0.0
 20
0.0
 30
0.0
  9
$PLIMCHECK
 70
     0
  9
$PEXTMIN
 10
1.000000000000000E+20
 20
1.000000000000000E+20
 30
1.000000000000000E+20
  9
$PEXTMAX
 10
-1.000000000000000E+20
 20
-1.000000000000000E+20
 30
-1.000000000000000E+20
  9
$PLIMMIN
 10
0.0
 20
0.0
  9
$PLIMMAX
 10
12.0
 20
9.0
  9
$UNITMODE
 70
     0
  9
$VISRETAIN
 70
     1
  9
$PLINEGEN
 70
     0
  9
$PSLTSCALE
 70
     1
  9
$TREEDEPTH
 70
  3020
  9
$CMLSTYLE
  2
Standard
  9
$CMLJUST
 70
     0
  9
$CMLSCALE
 40
1.0
  9
$PROXYGRAPHICS
 70
     1
  9
$MEASUREMENT
 70
     0
  9
$CELWEIGHT
370
    -1
  9
$ENDCAPS
280
     0
  9
$JOINSTYLE
280
     0
  9
$LWDISPLAY
290
     1
  9
$INSUNITS
 70
     1
  9
$HYPERLINKBASE
  1

  9
$STYLESHEET
  1

  9
$XEDIT
290
     1
  9
$CEPSNTYPE
380
     0
  9
$PSTYLEMODE
290
     1
  9
$FINGERPRINTGUID
  2
{C8E58056-B2D3-4DEF-37C8-78D9839F7C6B}
  9
$VERSIONGUID
  2
{FAEB1C32-E019-11D5-929B-00C0DF256EC4}
  9
$EXTNAMES
290
     1
  9
$PSVPSCALE
 40
0.0
  9
$OLESTARTUP
290
     0
  9
$SORTENTS
280
   127
  9
$INDEXCTL
280
     0
  9
$HIDETEXT
280
     1
  9
$XCLIPFRAME
290
     0
  9
$HALOGAP
280
     0
  9
$OBSCOLOR
 70
   257
  9
$OBSLTYPE
280
     0
  9
$INTERSECTIONDISPLAY
280
     0
  9
$INTERSECTIONCOLOR
 70
   257
  9
$DIMASSOC
280
     2
  9
$PROJECTNAME
  1

  0
ENDSEC
  0
SECTION
  2
CLASSES
  0
CLASS
  1
ACDBDICTIONARYWDFLT
  2
AcDbDictionaryWithDefault
  3
ObjectDBX Classes
 90
        0
 91
        3
280
     0
281
     0
  0
CLASS
  1
VISUALSTYLE
  2
AcDbVisualStyle
  3
ObjectDBX Classes
 90
     4095
 91
        3
280
     0
281
     0
  0
ENDSEC
  0
SECTION
  2
TABLES
  0
TABLE
  2
VPORT
  5
8
330
0
100
AcDbSymbolTable
 70
     1
  0
VPORT
  5
29
330
8
100
AcDbSymbolTableRecord
100
AcDbViewportTableRecord
  2
*Active
 70
     0
 10
0.0
 20
0.0
 11
1.0
 21
1.0
 12
0.0
 22
0.0
 13
0.0
 23
0.0
 14
0.5
 24
0.5
 15
0.5
 25
0.5
 16
0.0
 26
0.0
 36
1.0
 17
12.0
 27
9.0
 37
0.0
 40
18.0
 41
1.333333333333333
 42
50.0
 43
0.0
 44
0.0
 50
0.0
 51
0.0
 71
     0
 72
   100
 73
     1
 74
     3
 75
     0
 76
     0
 77
     0
 78
     0
281
     0
 65
     1
110
0.0
120
0.0
130
0.0
111
1.0
121
0.0
131
0.0
112
0.0
122
1.0
132
0.0
 79
     0
146
0.0
  0
ENDTAB
  0
TABLE
  2
LTYPE
  5
5
330
0
100
AcDbSymbolTable
 70
     1
  0
LTYPE
  5
14
330
5
100
AcDbSymbolTableRecord
100
AcDbLinetypeTableRecord
  2
ByBlock
 70
     0
  3

 72
    65
 73
     0
 40
0.0
  0
LTYPE
  5
15
330
5
100
AcDbSymbolTableRecord
100
AcDbLinetypeTableRecord
  2
ByLayer
 70
     0
  3

 72
    65
 73
     0
 40
0.0
  0
LTYPE
  5
16
330
5
100
AcDbSymbolTableRecord
100
AcDbLinetypeTableRecord
  2
Continuous
 70
     0
  3
Solid line
 72
    65
 73
     0
 40
0.0
  0
ENDTAB
  0
TABLE
  2
LAYER
  5
2
330
0
100
AcDbSymbolTable
 70
     2
  0
LAYER
  5
10
330
2
100
AcDbSymbolTableRecord
100
AcDbLayerTableRecord
  2
0
 70
     0
 62
     7
  6
Continuous
370
    -3
390
F
  0
LAYER
  5
3B
330
2
100
AcDbSymbolTableRecord
100
AcDbLayerTableRecord
  2
Layer 1
 70
     0
 62
     7
  6
Continuous
370
    -3
390
F
  0
ENDTAB
  0
TABLE
  2
STYLE
  5
3
330
0
100
AcDbSymbolTable
 70
     1
  0
STYLE
  5
11
330
3
100
AcDbSymbolTableRecord
100
AcDbTextStyleTableRecord
  2
Standard
 70
     0
 40
0.0
 41
1.0
 50
0.0
 71
     0
 42
0.2
  3
txt
  4

  0
ENDTAB
  0
TABLE
  2
VIEW
  5
6
330
0
100
AcDbSymbolTable
 70
     0
  0
ENDTAB
  0
TABLE
  2
UCS
  5
7
330
0
100
AcDbSymbolTable
 70
     0
  0
ENDTAB
  0
TABLE
  2
APPID
  5
9
330
0
100
AcDbSymbolTable
 70
     1
  0
APPID
  5
12
330
9
100
AcDbSymbolTableRecord
100
AcDbRegAppTableRecord
  2
ACAD
 70
     0
  0
ENDTAB
  0
TABLE
  2
DIMSTYLE
  5
A
330
0
100
AcDbSymbolTable
 70
     1
100
AcDbDimStyleTable
  0
DIMSTYLE
105
27
330
A
100
AcDbSymbolTableRecord
100
AcDbDimStyleTableRecord
  2
Standard
 70
     0
340
11
  0
ENDTAB
  0
TABLE
  2
BLOCK_RECORD
  5
1
330
0
100
AcDbSymbolTable
 70
     1
  0
BLOCK_RECORD
  5
1F
330
1
100
AcDbSymbolTableRecord
100
AcDbBlockTableRecord
  2
*Model_Space
340
22
  0
BLOCK_RECORD
  5
1B
330
1
100
AcDbSymbolTableRecord
100
AcDbBlockTableRecord
  2
*Paper_Space
340
1E
  0
BLOCK_RECORD
  5
23
330
1
100
AcDbSymbolTableRecord
100
AcDbBlockTableRecord
  2
*Paper_Space0
340
26
  0
ENDTAB
  0
ENDSEC
  0
SECTION
  2
BLOCKS
  0
BLOCK
  5
20
330
1F
100
AcDbEntity
  8
0
100
AcDbBlockBegin
  2
*Model_Space
 70
     0
 71
     0
 10
0.0
 20
0.0
 30
0.0
  3
*Model_Space
  1

  0
ENDBLK
  5
21
330
1F
100
AcDbEntity
  8
0
100
AcDbBlockEnd
  0
BLOCK
  5
1C
330
1B
100
AcDbEntity
 67
     1
  8
0
100
AcDbBlockBegin
  2
*Paper_Space
 70
     0
 71
     0
 10
0.0
 20
0.0
 30
0.0
  3
*Paper_Space
  1

  0
ENDBLK
  5
1D
330
1B
100
AcDbEntity
 67
     1
  8
0
100
AcDbBlockEnd
  0
BLOCK
  5
24
330
23
100
AcDbEntity
  8
0
100
AcDbBlockBegin
  2
*Paper_Space0
 70
     0
 71
     0
 10
0.0
 20
0.0
 30
0.0
  3
*Paper_Space0
  1

  0
ENDBLK
  5
25
330
23
100
AcDbEntity
  8
0
100
AcDbBlockEnd
  0
ENDSEC
  0
SECTION
  2
ENTITIES
  0
SPLINE
  5
3C
330
1F
100
AcDbEntity
  8
Layer 1
370
     0
100
AcDbSpline
210
0.0
220
0.0
230
1.0
 70
    11
 71
     3
 72
    80
 73
    76
 74
     0
 42
0.0000000001
 43
0.0000000001
 40
0.0
 40
0.0
 40
0.0
 40
0.0
 40
1.0
 40
1.0
 40
1.0
 40
2.0
 40
2.0
 40
2.0
 40
3.0
 40
3.0
 40
3.0
 40
4.0
 40
4.0
 40
4.0
 40
5.0
 40
5.0
 40
5.0
 40
6.0
 40
6.0
 40
6.0
 40
7.0
 40
7.0
 40
7.0
 40
8.0
 40
8.0
 40
8.0
 40
9.0
 40
9.0
 40
9.0
 40
10.0
 40
10.0
 40
10.0
 40
11.0
 40
11.0
 40
11.0
 40
12.0
 40
12.0
 40
12.0
 40
13.0
 40
13.0
 40
13.0
 40
14.0
 40
14.0
 40
14.0
 40
15.0
 40
15.0
 40
15.0
 40
16.0
 40
16.0
 40
16.0
 40
17.0
 40
17.0
 40
17.0
 40
18.0
 40
18.0
 40
18.0
 40
19.0
 40
19.0
 40
19.0
 40
20.0
 40
20.0
 40
20.0
 40
21.0
 40
21.0
 40
21.0
 40
22.0
 40
22.0
 40
22.0
 40
23.0
 40
23.0
 40
23.0
 40
24.0
 40
24.0
 40
24.0
 40
25.0
 40
25.0
 40
25.0
 40
25.0
 10
10.96095784505208
 20
9.289076063368055
 30
0.0
 10
10.96095784505208
 20
9.289076063368055
 30
0.0
 10
10.96356201171875
 20
9.278889973958332
 30
0.0
 10
10.96356201171875
 20
9.278889973958332
 30
0.0
 10
10.96356201171875
 20
9.278889973958332
 30
0.0
 10
10.96261935763889
 20
9.14217800564236
 30
0.0
 10
10.96261935763889
 20
9.14217800564236
 30
0.0
 10
10.96261935763889
 20
9.14217800564236
 30
0.0
 10
10.90433078342014
 20
9.176778157552082
 30
0.0
 10
10.90433078342014
 20
9.176778157552082
 30
0.0
 10
10.90433078342014
 20
9.176778157552082
 30
0.0
 10
10.90266927083333
 20
9.222737630208332
 30
0.0
 10
10.90266927083333
 20
9.222737630208332
 30
0.0
 10
10.90266927083333
 20
9.222737630208332
 30
0.0
 10
10.857421875
 20
9.199049207899305
 30
0.0
 10
10.857421875
 20
9.199049207899305
 30
0.0
 10
10.857421875
 20
9.199049207899305
 30
0.0
 10
10.9697265625
 20
9.131991916232638
 30
0.0
 10
10.9697265625
 20
9.131991916232638
 30
0.0
 10
10.97493489583333
 20
9.129387749565971
 30
0.0
 10
10.98180474175347
 20
9.128675672743055
 30
0.0
 10
10.98773193359375
 20
9.13033718532986
 30
0.0
 10
10.98773193359375
 20
9.13033718532986
 30
0.0
 10
11.10619439019097
 20
9.195963541666666
 30
0.0
 10
11.10619439019097
 20
9.195963541666666
 30
0.0
 10
11.10619439019097
 20
9.195963541666666
 30
0.0
 10
11.05951605902778
 20
9.219658745659721
 30
0.0
 10
11.05951605902778
 20
9.219658745659721
 30
0.0
 10
11.05951605902778
 20
9.219658745659721
 30
0.0
 10
11.05714925130208
 20
9.176059299045138
 30
0.0
 10
11.05714925130208
 20
9.176059299045138
 30
0.0
 10
11.05714925130208
 20
9.176059299045138
 30
0.0
 10
10.99791802300347
 20
9.142896864149305
 30
0.0
 10
10.99791802300347
 20
9.142896864149305
 30
0.0
 10
10.99791802300347
 20
9.142896864149305
 30
0.0
 10
10.99649386935764
 20
9.270365397135416
 30
0.0
 10
10.99649386935764
 20
9.270365397135416
 30
0.0
 10
10.99933539496528
 20
9.283393012152777
 30
0.0
 10
11.00431315104167
 20
9.297132703993055
 30
0.0
 10
11.01781548394097
 20
9.30471462673611
 30
0.0
 10
11.02610948350694
 20
9.308505588107638
 30
0.0
 10
11.03582763671875
 20
9.305189344618055
 30
0.0
 10
11.04317220052083
 20
9.301873101128471
 30
0.0
 10
11.04317220052083
 20
9.301873101128471
 30
0.0
 10
11.19551595052083
 20
9.22747802734375
 30
0.0
 10
11.19551595052083
 20
9.22747802734375
 30
0.0
 10
11.20830620659722
 20
9.217997233072916
 30
0.0
 10
11.21992323133681
 20
9.204020182291666
 30
0.0
 10
11.21613226996528
 20
9.185777452256945
 30
0.0
 10
11.21518283420139
 20
9.174167209201388
 30
0.0
 10
11.20380995008681
 20
9.166585286458332
 30
0.0
 10
11.19480387369792
 20
9.160902235243055
 30
0.0
 10
11.19480387369792
 20
9.160902235243055
 30
0.0
 10
11.00288899739583
 20
9.053805881076388
 30
0.0
 10
11.00288899739583
 20
9.053805881076388
 30
0.0
 10
10.99009874131944
 20
9.047410753038195
 30
0.0
 10
10.97280544704861
 20
9.046223958333332
 30
0.0
 10
10.96024576822917
 20
9.053805881076388
 30
0.0
 10
10.96024576822917
 20
9.053805881076388
 30
0.0
 10
10.75814480251736
 20
9.17440456814236
 30
0.0
 10
10.75814480251736
 20
9.17440456814236
 30
0.0
 10
10.75032552083333
 20
9.181511773003471
 30
0.0
 10
10.74653455946181
 20
9.189568413628471
 30
0.0
 10
10.74464246961806
 20
9.199049207899305
 30
0.0
 10
10.74534776475694
 20
9.208760579427082
 30
0.0
 10
10.74559190538194
 20
9.218234592013888
 30
0.0
 10
10.75316704644097
 20
9.225104437934027
 30
0.0
 10
10.75316704644097
 20
9.225104437934027
 30
0.0
 10
10.9254150390625
 20
9.306376139322916
 30
0.0
 10
10.9254150390625
 20
9.306376139322916
 30
0.0
 10
10.93986680772569
 20
9.311116536458332
 30
0.0
 10
10.95621744791667
 20
9.303765190972221
 30
0.0
 10
10.96095784505208
 20
9.289076063368055
 30
0.0
 10
10.96095784505208
 20
9.289076063368055
 30
0.0
 10
10.96095784505208
 20
9.289076063368055
 30
0.0
 10
10.96095784505208
 20
9.289076063368055
 30
0.0
  0
HATCH
  5
3D
330
1F
100
AcDbEntity
  8
Layer 1
 62
   179
420
  2301728
100
AcDbHatch
 10
0.0
 20
0.0
 30
0.0
210
0.0
220
0.0
230
1.0
  2
SOLID
 70
     1
 71
     0
 91
        1
 92
        1
 93
        1
 72
     4
 94
        3
 73
     0
 74
     1
 95
       80
 96
       76
 40
0.0
 40
0.0
 40
0.0
 40
0.0
 40
1.0
 40
1.0
 40
1.0
 40
2.0
 40
2.0
 40
2.0
 40
3.0
 40
3.0
 40
3.0
 40
4.0
 40
4.0
 40
4.0
 40
5.0
 40
5.0
 40
5.0
 40
6.0
 40
6.0
 40
6.0
 40
7.0
 40
7.0
 40
7.0
 40
8.0
 40
8.0
 40
8.0
 40
9.0
 40
9.0
 40
9.0
 40
10.0
 40
10.0
 40
10.0
 40
11.0
 40
11.0
 40
11.0
 40
12.0
 40
12.0
 40
12.0
 40
13.0
 40
13.0
 40
13.0
 40
14.0
 40
14.0
 40
14.0
 40
15.0
 40
15.0
 40
15.0
 40
16.0
 40
16.0
 40
16.0
 40
17.0
 40
17.0
 40
17.0
 40
18.0
 40
18.0
 40
18.0
 40
19.0
 40
19.0
 40
19.0
 40
20.0
 40
20.0
 40
20.0
 40
21.0
 40
21.0
 40
21.0
 40
22.0
 40
22.0
 40
22.0
 40
23.0
 40
23.0
 40
23.0
 40
24.0
 40
24.0
 40
24.0
 40
25.0
 40
25.0
 40
25.0
 40
25.0
 10
10.96095784505208
 20
9.289076063368055
 10
10.96095784505208
 20
9.289076063368055
 10
10.96356201171875
 20
9.278889973958332
 10
10.96356201171875
 20
9.278889973958332
 10
10.96356201171875
 20
9.278889973958332
 10
10.96261935763889
 20
9.14217800564236
 10
10.96261935763889
 20
9.14217800564236
 10
10.96261935763889
 20
9.14217800564236
 10
10.90433078342014
 20
9.176778157552082
 10
10.90433078342014
 20
9.176778157552082
 10
10.90433078342014
 20
9.176778157552082
 10
10.90266927083333
 20
9.222737630208332
 10
10.90266927083333
 20
9.222737630208332
 10
10.90266927083333
 20
9.222737630208332
 10
10.857421875
 20
9.199049207899305
 10
10.857421875
 20
9.199049207899305
 10
10.857421875
 20
9.199049207899305
 10
10.9697265625
 20
9.131991916232638
 10
10.9697265625
 20
9.131991916232638
 10
10.97493489583333
 20
9.129387749565971
 10
10.98180474175347
 20
9.128675672743055
 10
10.98773193359375
 20
9.13033718532986
 10
10.98773193359375
 20
9.13033718532986
 10
11.10619439019097
 20
9.195963541666666
 10
11.10619439019097
 20
9.195963541666666
 10
11.10619439019097
 20
9.195963541666666
 10
11.05951605902778
 20
9.219658745659721
 10
11.05951605902778
 20
9.219658745659721
 10
11.05951605902778
 20
9.219658745659721
 10
11.05714925130208
 20
9.176059299045138
 10
11.05714925130208
 20
9.176059299045138
 10
11.05714925130208
 20
9.176059299045138
 10
10.99791802300347
 20
9.142896864149305
 10
10.99791802300347
 20
9.142896864149305
 10
10.99791802300347
 20
9.142896864149305
 10
10.99649386935764
 20
9.270365397135416
 10
10.99649386935764
 20
9.270365397135416
 10
10.99933539496528
 20
9.283393012152777
 10
11.00431315104167
 20
9.297132703993055
 10
11.01781548394097
 20
9.30471462673611
 10
11.02610948350694
 20
9.308505588107638
 10
11.03582763671875
 20
9.305189344618055
 10
11.04317220052083
 20
9.301873101128471
 10
11.04317220052083
 20
9.301873101128471
 10
11.19551595052083
 20
9.22747802734375
 10
11.19551595052083
 20
9.22747802734375
 10
11.20830620659722
 20
9.217997233072916
 10
11.21992323133681
 20
9.204020182291666
 10
11.21613226996528
 20
9.185777452256945
 10
11.21518283420139
 20
9.174167209201388
 10
11.20380995008681
 20
9.166585286458332
 10
11.19480387369792
 20
9.160902235243055
 10
11.19480387369792
 20
9.160902235243055
 10
11.00288899739583
 20
9.053805881076388
 10
11.00288899739583
 20
9.053805881076388
 10
10.99009874131944
 20
9.047410753038195
 10
10.97280544704861
 20
9.046223958333332
 10
10.96024576822917
 20
9.053805881076388
 10
10.96024576822917
 20
9.053805881076388
 10
10.75814480251736
 20
9.17440456814236
 10
10.75814480251736
 20
9.17440456814236
 10
10.75032552083333
 20
9.181511773003471
 10
10.74653455946181
 20
9.189568413628471
 10
10.74464246961806
 20
9.199049207899305
 10
10.74534776475694
 20
9.208760579427082
 10
10.74559190538194
 20
9.218234592013888
 10
10.75316704644097
 20
9.225104437934027
 10
10.75316704644097
 20
9.225104437934027
 10
10.9254150390625
 20
9.306376139322916
 10
10.9254150390625
 20
9.306376139322916
 10
10.93986680772569
 20
9.311116536458332
 10
10.95621744791667
 20
9.303765190972221
 10
10.96095784505208
 20
9.289076063368055
 10
10.96095784505208
 20
9.289076063368055
 10
10.96095784505208
 20
9.289076063368055
 10
10.96095784505208
 20
9.289076063368055
 97
        0
 75
     0
 76
     1
 98
        0
  0
SPLINE
  5
3E
330
1F
100
AcDbEntity
  8
Layer 1
370
     0
100
AcDbSpline
210
0.0
220
0.0
230
1.0
 70
    11
 71
     3
 72
    80
 73
    76
 74
     0
 42
0.0000000001
 43
0.0000000001
 40
0.0
 40
0.0
 40
0.0
 40
0.0
 40
1.0
 40
1.0
 40
1.0
 40
2.0
 40
2.0
 40
2.0
 40
3.0
 40
3.0
 40
3.0
 40
4.0
 40
4.0
 40
4.0
 40
5.0
 40
5.0
 40
5.0
 40
6.0
 40
6.0
 40
6.0
 40
7.0
 40
7.0
 40
7.0
 40
8.0
 40
8.0
 40
8.0
 40
9.0
 40
9.0
 40
9.0
 40
10.0
 40
10.0
 40
10.0
 40
11.0
 40
11.0
 40
11.0
 40
12.0
 40
12.0
 40
12.0
 40
13.0
 40
13.0
 40
13.0
 40
14.0
 40
14.0
 40
14.0
 40
15.0
 40
15.0
 40
15.0
 40
16.0
 40
16.0
 40
16.0
 40
17.0
 40
17.0
 40
17.0
 40
18.0
 40
18.0
 40
18.0
 40
19.0
 40
19.0
 40
19.0
 40
20.0
 40
20.0
 40
20.0
 40
21.0
 40
21.0
 40
21.0
 40
22.0
 40
22.0
 40
22.0
 40
23.0
 40
23.0
 40
23.0
 40
24.0
 40
24.0
 40
24.0
 40
25.0
 40
25.0
 40
25.0
 40
25.0
 10
11.22018771701389
 20
8.908935546875
 30
0.0
 10
11.22018771701389
 20
8.908935546875
 30
0.0
 10
11.21006266276042
 20
8.911756727430555
 30
0.0
 10
11.21006266276042
 20
8.911756727430555
 30
0.0
 10
11.21006266276042
 20
8.911756727430555
 30
0.0
 10
11.09214274088542
 20
8.980929904513888
 30
0.0
 10
11.09214274088542
 20
8.980929904513888
 30
0.0
 10
11.09214274088542
 20
8.980929904513888
 30
0.0
 10
11.1512451171875
 20
9.014112684461805
 30
0.0
 10
11.1512451171875
 20
9.014112684461805
 30
0.0
 10
11.1512451171875
 20
9.014112684461805
 30
0.0
 10
11.19188096788194
 20
8.992567274305555
 30
0.0
 10
11.19188096788194
 20
8.992567274305555
 30
0.0
 10
11.19188096788194
 20
8.992567274305555
 30
0.0
 10
11.19399007161458
 20
9.04360622829861
 30
0.0
 10
11.19399007161458
 20
9.04360622829861
 30
0.0
 10
11.19399007161458
 20
9.04360622829861
 30
0.0
 10
11.07976616753472
 20
8.979871961805555
 30
0.0
 10
11.07976616753472
 20
8.979871961805555
 30
0.0
 10
11.07490370008681
 20
8.976671006944445
 30
0.0
 10
11.07085503472222
 20
8.971055772569445
 30
0.0
 10
11.06932237413194
 20
8.96511501736111
 30
0.0
 10
11.06932237413194
 20
8.96511501736111
 30
0.0
 10
11.06693522135417
 20
8.829698350694445
 30
0.0
 10
11.06693522135417
 20
8.829698350694445
 30
0.0
 10
11.06693522135417
 20
8.829698350694445
 30
0.0
 10
11.11078559027778
 20
8.858262803819445
 30
0.0
 10
11.11078559027778
 20
8.858262803819445
 30
0.0
 10
11.11078559027778
 20
8.858262803819445
 30
0.0
 10
11.07421875
 20
8.882134331597221
 30
0.0
 10
11.07421875
 20
8.882134331597221
 30
0.0
 10
11.07421875
 20
8.882134331597221
 30
0.0
 10
11.07510715060764
 20
8.950005425347221
 30
0.0
 10
11.07510715060764
 20
8.950005425347221
 30
0.0
 10
11.07510715060764
 20
8.950005425347221
 30
0.0
 10
11.18621148003472
 20
8.887505425347221
 30
0.0
 10
11.18621148003472
 20
8.887505425347221
 30
0.0
 10
11.19607204861111
 20
8.878526475694445
 30
0.0
 10
11.20548502604167
 20
8.867350260416666
 30
0.0
 10
11.20529513888889
 20
8.851860894097221
 30
0.0
 10
11.20443386501736
 20
8.8427734375
 30
0.0
 10
11.19670952690972
 20
8.836018880208332
 30
0.0
 10
11.19015842013889
 20
8.83132595486111
 30
0.0
 10
11.19015842013889
 20
8.83132595486111
 30
0.0
 10
11.049560546875
 20
8.73659939236111
 30
0.0
 10
11.049560546875
 20
8.73659939236111
 30
0.0
 10
11.03495279947917
 20
8.73025173611111
 30
0.0
 10
11.01704237196181
 20
8.727186414930555
 30
0.0
 10
11.00313991970486
 20
8.739583333333332
 30
0.0
 10
10.99356418185764
 20
8.746202256944445
 30
0.0
 10
10.99268256293403
 20
8.759847005208332
 30
0.0
 10
10.99225531684028
 20
8.77048068576389
 30
0.0
 10
10.99225531684028
 20
8.77048068576389
 30
0.0
 10
10.99546983506944
 20
8.990234375
 30
0.0
 10
10.99546983506944
 20
8.990234375
 30
0.0
 10
10.99632432725694
 20
9.004523383246527
 30
0.0
 10
11.00394694010417
 20
9.020094129774305
 30
0.0
 10
11.01679144965278
 20
9.027174207899305
 30
0.0
 10
11.01679144965278
 20
9.027174207899305
 30
0.0
 10
11.22228325737847
 20
9.141899956597221
 30
0.0
 10
11.22228325737847
 20
9.141899956597221
 30
0.0
 10
11.23234727647569
 20
9.145121256510416
 30
0.0
 10
11.24121771918403
 20
9.14437527126736
 30
0.0
 10
11.25037977430556
 20
9.141276041666666
 30
0.0
 10
11.25842963324653
 20
9.13580322265625
 30
0.0
 10
11.26652018229167
 20
9.130859375
 30
0.0
 10
11.2686767578125
 20
9.120856391059027
 30
0.0
 10
11.2686767578125
 20
9.120856391059027
 30
0.0
 10
11.25293646918403
 20
8.931043836805555
 30
0.0
 10
11.25293646918403
 20
8.931043836805555
 30
0.0
 10
11.24981011284722
 20
8.916178385416666
 30
0.0
 10
11.23527696397569
 20
8.905680338541666
 30
0.0
 10
11.22018771701389
 20
8.908935546875
 30
0.0
 10
11.22018771701389
 20
8.908935546875
 30
0.0
 10
11.22018771701389
 20
8.908935546875
 30
0.0
 10
11.22018771701389
 20
8.908935546875
 30
0.0
  0
HATCH
  5
3F
330
1F
100
AcDbEntity
  8
Layer 1
 62
   179
420
  2301728
100
AcDbHatch
 10
0.0
 20
0.0
 30
0.0
210
0.0
220
0.0
230
1.0
  2
SOLID
 70
     1
 71
     0
 91
        1
 92
        1
 93
        1
 72
     4
 94
        3
 73
     0
 74
     1
 95
       80
 96
       76
 40
0.0
 40
0.0
 40
0.0
 40
0.0
 40
1.0
 40
1.0
 40
1.0
 40
2.0
 40
2.0
 40
2.0
 40
3.0
 40
3.0
 40
3.0
 40
4.0
 40
4.0
 40
4.0
 40
5.0
 40
5.0
 40
5.0
 40
6.0
 40
6.0
 40
6.0
 40
7.0
 40
7.0
 40
7.0
 40
8.0
 40
8.0
 40
8.0
 40
9.0
 40
9.0
 40
9.0
 40
10.0
 40
10.0
 40
10.0
 40
11.0
 40
11.0
 40
11.0
 40
12.0
 40
12.0
 40
12.0
 40
13.0
 40
13.0
 40
13.0
 40
14.0
 40
14.0
 40
14.0
 40
15.0
 40
15.0
 40
15.0
 40
16.0
 40
16.0
 40
16.0
 40
17.0
 40
17.0
 40
17.0
 40
18.0
 40
18.0
 40
18.0
 40
19.0
 40
19.0
 40
19.0
 40
20.0
 40
20.0
 40
20.0
 40
21.0
 40
21.0
 40
21.0
 40
22.0
 40
22.0
 40
22.0
 40
23.0
 40
23.0
 40
23.0
 40
24.0
 40
24.0
 40
24.0
 40
25.0
 40
25.0
 40
25.0
 40
25.0
 10
11.22018771701389
 20
8.908935546875
 10
11.22018771701389
 20
8.908935546875
 10
11.21006266276042
 20
8.911756727430555
 10
11.21006266276042
 20
8.911756727430555
 10
11.21006266276042
 20
8.911756727430555
 10
11.09214274088542
 20
8.980929904513888
 10
11.09214274088542
 20
8.980929904513888
 10
11.09214274088542
 20
8.980929904513888
 10
11.1512451171875
 20
9.014112684461805
 10
11.1512451171875
 20
9.014112684461805
 10
11.1512451171875
 20
9.014112684461805
 10
11.19188096788194
 20
8.992567274305555
 10
11.19188096788194
 20
8.992567274305555
 10
11.19188096788194
 20
8.992567274305555
 10
11.19399007161458
 20
9.04360622829861
 10
11.19399007161458
 20
9.04360622829861
 10
11.19399007161458
 20
9.04360622829861
 10
11.07976616753472
 20
8.979871961805555
 10
11.07976616753472
 20
8.979871961805555
 10
11.07490370008681
 20
8.976671006944445
 10
11.07085503472222
 20
8.971055772569445
 10
11.06932237413194
 20
8.96511501736111
 10
11.06932237413194
 20
8.96511501736111
 10
11.06693522135417
 20
8.829698350694445
 10
11.06693522135417
 20
8.829698350694445
 10
11.06693522135417
 20
8.829698350694445
 10
11.11078559027778
 20
8.858262803819445
 10
11.11078559027778
 20
8.858262803819445
 10
11.11078559027778
 20
8.858262803819445
 10
11.07421875
 20
8.882134331597221
 10
11.07421875
 20
8.882134331597221
 10
11.07421875
 20
8.882134331597221
 10
11.07510715060764
 20
8.950005425347221
 10
11.07510715060764
 20
8.950005425347221
 10
11.07510715060764
 20
8.950005425347221
 10
11.18621148003472
 20
8.887505425347221
 10
11.18621148003472
 20
8.887505425347221
 10
11.19607204861111
 20
8.878526475694445
 10
11.20548502604167
 20
8.867350260416666
 10
11.20529513888889
 20
8.851860894097221
 10
11.20443386501736
 20
8.8427734375
 10
11.19670952690972
 20
8.836018880208332
 10
11.19015842013889
 20
8.83132595486111
 10
11.19015842013889
 20
8.83132595486111
 10
11.049560546875
 20
8.73659939236111
 10
11.049560546875
 20
8.73659939236111
 10
11.03495279947917
 20
8.73025173611111
 10
11.01704237196181
 20
8.727186414930555
 10
11.00313991970486
 20
8.739583333333332
 10
10.99356418185764
 20
8.746202256944445
 10
10.99268256293403
 20
8.759847005208332
 10
10.99225531684028
 20
8.77048068576389
 10
10.99225531684028
 20
8.77048068576389
 10
10.99546983506944
 20
8.990234375
 10
10.99546983506944
 20
8.990234375
 10
10.99632432725694
 20
9.004523383246527
 10
11.00394694010417
 20
9.020094129774305
 10
11.01679144965278
 20
9.027174207899305
 10
11.01679144965278
 20
9.027174207899305
 10
11.22228325737847
 20
9.141899956597221
 10
11.22228325737847
 20
9.141899956597221
 10
11.23234727647569
 20
9.145121256510416
 10
11.24121771918403
 20
9.14437527126736
 10
11.25037977430556
 20
9.141276041666666
 10
11.25842963324653
 20
9.13580322265625
 10
11.26652018229167
 20
9.130859375
 10
11.2686767578125
 20
9.120856391059027
 10
11.2686767578125
 20
9.120856391059027
 10
11.25293646918403
 20
8.931043836805555
 10
11.25293646918403
 20
8.931043836805555
 10
11.24981011284722
 20
8.916178385416666
 10
11.23527696397569
 20
8.905680338541666
 10
11.22018771701389
 20
8.908935546875
 10
11.22018771701389
 20
8.908935546875
 10
11.22018771701389
 20
8.908935546875
 10
11.22018771701389
 20
8.908935546875
 97
        0
 75
     0
 76
     1
 98
        0
  0
SPLINE
  5
40
330
1F
100
AcDbEntity
  8
Layer 1
370
     0
100
AcDbSpline
210
0.0
220
0.0
230
1.0
 70
    11
 71
     3
 72
    80
 73
    76
 74
     0
 42
0.0000000001
 43
0.0000000001
 40
0.0
 40
0.0
 40
0.0
 40
0.0
 40
1.0
 40
1.0
 40
1.0
 40
2.0
 40
2.0
 40
2.0
 40
3.0
 40
3.0
 40
3.0
 40
4.0
 40
4.0
 40
4.0
 40
5.0
 40
5.0
 40
5.0
 40
6.0
 40
6.0
 40
6.0
 40
7.0
 40
7.0
 40
7.0
 40
8.0
 40
8.0
 40
8.0
 40
9.0
 40
9.0
 40
9.0
 40
10.0
 40
10.0
 40
10.0
 40
11.0
 40
11.0
 40
11.0
 40
12.0
 40
12.0
 40
12.0
 40
13.0
 40
13.0
 40
13.0
 40
14.0
 40
14.0
 40
14.0
 40
15.0
 40
15.0
 40
15.0
 40
16.0
 40
16.0
 40
16.0
 40
17.0
 40
17.0
 40
17.0
 40
18.0
 40
18.0
 40
18.0
 40
19.0
 40
19.0
 40
19.0
 40
20.0
 40
20.0
 40
20.0
 40
21.0
 40
21.0
 40
21.0
 40
22.0
 40
22.0
 40
22.0
 40
23.0
 40
23.0
 40
23.0
 40
24.0
 40
24.0
 40
24.0
 40
25.0
 40
25.0
 40
25.0
 40
25.0
 10
10.75608317057292
 20
8.875081380208332
 30
0.0
 10
10.75608317057292
 20
8.875081380208332
 30
0.0
 10
10.76360405815972
 20
8.882432725694445
 30
0.0
 10
10.76360405815972
 20
8.882432725694445
 30
0.0
 10
10.76360405815972
 20
8.882432725694445
 30
0.0
 10
10.88246663411458
 20
8.94997829861111
 30
0.0
 10
10.88246663411458
 20
8.94997829861111
 30
0.0
 10
10.88246663411458
 20
8.94997829861111
 30
0.0
 10
10.88165283203125
 20
8.882188585069445
 30
0.0
 10
10.88165283203125
 20
8.882188585069445
 30
0.0
 10
10.88165283203125
 20
8.882188585069445
 30
0.0
 10
10.84267849392361
 20
8.857774522569445
 30
0.0
 10
10.84267849392361
 20
8.857774522569445
 30
0.0
 10
10.84267849392361
 20
8.857774522569445
 30
0.0
 10
10.88582356770833
 20
8.830430772569445
 30
0.0
 10
10.88582356770833
 20
8.830430772569445
 30
0.0
 10
10.88582356770833
 20
8.830430772569445
 30
0.0
 10
10.88773600260417
 20
8.96120876736111
 30
0.0
 10
10.88773600260417
 20
8.96120876736111
 30
0.0
 10
10.88739013671875
 20
8.967041015625
 30
0.0
 10
10.88456895616319
 20
8.973334418402777
 30
0.0
 10
10.88016764322917
 20
8.977647569444445
 30
0.0
 10
10.88016764322917
 20
8.977647569444445
 30
0.0
 10
10.76409912109375
 20
9.047417534722221
 30
0.0
 10
10.76409912109375
 20
9.047417534722221
 30
0.0
 10
10.76409912109375
 20
9.047417534722221
 30
0.0
 10
10.76692030164931
 20
8.99514431423611
 30
0.0
 10
10.76692030164931
 20
8.99514431423611
 30
0.0
 10
10.76692030164931
 20
8.99514431423611
 30
0.0
 10
10.80585394965278
 20
9.014892578125
 30
0.0
 10
10.80585394965278
 20
9.014892578125
 30
0.0
 10
10.80585394965278
 20
9.014892578125
 30
0.0
 10
10.86420355902778
 20
8.980170355902777
 30
0.0
 10
10.86420355902778
 20
8.980170355902777
 30
0.0
 10
10.86420355902778
 20
8.980170355902777
 30
0.0
 10
10.75452338324653
 20
8.915228949652777
 30
0.0
 10
10.75452338324653
 20
8.915228949652777
 30
0.0
 10
10.74181450737847
 20
8.91115993923611
 30
0.0
 10
10.72742377387153
 20
8.908610026041666
 30
0.0
 10
10.71410454644097
 20
8.91650390625
 30
0.0
 10
10.70667860243056
 20
8.921793619791666
 30
0.0
 10
10.70469156901042
 20
8.931857638888888
 30
0.0
 10
10.70389133029514
 20
8.939887152777777
 30
0.0
 10
10.70389133029514
 20
8.939887152777777
 30
0.0
 10
10.69215223524306
 20
9.109015570746527
 30
0.0
 10
10.69215223524306
 20
9.109015570746527
 30
0.0
 10
10.69395616319444
 20
9.124830457899305
 30
0.0
 10
10.70025634765625
 20
9.141879611545138
 30
0.0
 10
10.71795654296875
 20
9.147718641493055
 30
0.0
 10
10.72848171657986
 20
9.152703179253471
 30
0.0
 10
10.74073621961806
 20
9.146647135416666
 30
0.0
 10
10.75016276041667
 20
9.14168972439236
 30
0.0
 10
10.75016276041667
 20
9.14168972439236
 30
0.0
 10
10.93886311848958
 20
9.029032389322916
 30
0.0
 10
10.93886311848958
 20
9.029032389322916
 30
0.0
 10
10.9508056640625
 20
9.021152072482638
 30
0.0
 10
10.96047634548611
 20
9.006768120659721
 30
0.0
 10
10.96019151475694
 20
8.992106119791666
 30
0.0
 10
10.96019151475694
 20
8.992106119791666
 30
0.0
 10
10.95680067274306
 20
8.756781684027777
 30
0.0
 10
10.95680067274306
 20
8.756781684027777
 30
0.0
 10
10.95454915364583
 20
8.746446397569445
 30
0.0
 10
10.94946967230903
 20
8.739149305555555
 30
0.0
 10
10.94220648871528
 20
8.732774522569445
 30
0.0
 10
10.93344455295139
 20
8.728515625
 30
0.0
 10
10.92511664496528
 20
8.723985460069445
 30
0.0
 10
10.91537814670139
 20
8.727105034722221
 30
0.0
 10
10.91537814670139
 20
8.727105034722221
 30
0.0
 10
10.75887044270833
 20
8.83566623263889
 30
0.0
 10
10.75887044270833
 20
8.83566623263889
 30
0.0
 10
10.74754503038194
 20
8.845811631944445
 30
0.0
 10
10.7457275390625
 20
8.863633897569445
 30
0.0
 10
10.75608317057292
 20
8.875081380208332
 30
0.0
 10
10.75608317057292
 20
8.875081380208332
 30
0.0
 10
10.75608317057292
 20
8.875081380208332
 30
0.0
 10
10.75608317057292
 20
8.875081380208332
 30
0.0
  0
HATCH
  5
41
330
1F
100
AcDbEntity
  8
Layer 1
 62
   179
420
  2301728
100
AcDbHatch
 10
0.0
 20
0.0
 30
0.0
210
0.0
220
0.0
230
1.0
  2
SOLID
 70
     1
 71
     0
 91
        1
 92
        1
 93
        1
 72
     4
 94
        3
 73
     0
 74
     1
 95
       80
 96
       76
 40
0.0
 40
0.0
 40
0.0
 40
0.0
 40
1.0
 40
1.0
 40
1.0
 40
2.0
 40
2.0
 40
2.0
 40
3.0
 40
3.0
 40
3.0
 40
4.0
 40
4.0
 40
4.0
 40
5.0
 40
5.0
 40
5.0
 40
6.0
 40
6.0
 40
6.0
 40
7.0
 40
7.0
 40
7.0
 40
8.0
 40
8.0
 40
8.0
 40
9.0
 40
9.0
 40
9.0
 40
10.0
 40
10.0
 40
10.0
 40
11.0
 40
11.0
 40
11.0
 40
12.0
 40
12.0
 40
12.0
 40
13.0
 40
13.0
 40
13.0
 40
14.0
 40
14.0
 40
14.0
 40
15.0
 40
15.0
 40
15.0
 40
16.0
 40
16.0
 40
16.0
 40
17.0
 40
17.0
 40
17.0
 40
18.0
 40
18.0
 40
18.0
 40
19.0
 40
19.0
 40
19.0
 40
20.0
 40
20.0
 40
20.0
 40
21.0
 40
21.0
 40
21.0
 40
22.0
 40
22.0
 40
22.0
 40
23.0
 40
23.0
 40
23.0
 40
24.0
 40
24.0
 40
24.0
 40
25.0
 40
25.0
 40
25.0
 40
25.0
 10
10.75608317057292
 20
8.875081380208332
 10
10.75608317057292
 20
8.875081380208332
 10
10.76360405815972
 20
8.882432725694445
 10
10.76360405815972
 20
8.882432725694445
 10
10.76360405815972
 20
8.882432725694445
 10
10.88246663411458
 20
8.94997829861111
 10
10.88246663411458
 20
8.94997829861111
 10
10.88246663411458
 20
8.94997829861111
 10
10.88165283203125
 20
8.882188585069445
 10
10.88165283203125
 20
8.882188585069445
 10
10.88165283203125
 20
8.882188585069445
 10
10.84267849392361
 20
8.857774522569445
 10
10.84267849392361
 20
8.857774522569445
 10
10.84267849392361
 20
8.857774522569445
 10
10.88582356770833
 20
8.830430772569445
 10
10.88582356770833
 20
8.830430772569445
 10
10.88582356770833
 20
8.830430772569445
 10
10.88773600260417
 20
8.96120876736111
 10
10.88773600260417
 20
8.96120876736111
 10
10.88739013671875
 20
8.967041015625
 10
10.88456895616319
 20
8.973334418402777
 10
10.88016764322917
 20
8.977647569444445
 10
10.88016764322917
 20
8.977647569444445
 10
10.76409912109375
 20
9.047417534722221
 10
10.76409912109375
 20
9.047417534722221
 10
10.76409912109375
 20
9.047417534722221
 10
10.76692030164931
 20
8.99514431423611
 10
10.76692030164931
 20
8.99514431423611
 10
10.76692030164931
 20
8.99514431423611
 10
10.80585394965278
 20
9.014892578125
 10
10.80585394965278
 20
9.014892578125
 10
10.80585394965278
 20
9.014892578125
 10
10.86420355902778
 20
8.980170355902777
 10
10.86420355902778
 20
8.980170355902777
 10
10.86420355902778
 20
8.980170355902777
 10
10.75452338324653
 20
8.915228949652777
 10
10.75452338324653
 20
8.915228949652777
 10
10.74181450737847
 20
8.91115993923611
 10
10.72742377387153
 20
8.908610026041666
 10
10.71410454644097
 20
8.91650390625
 10
10.70667860243056
 20
8.921793619791666
 10
10.70469156901042
 20
8.931857638888888
 10
10.70389133029514
 20
8.939887152777777
 10
10.70389133029514
 20
8.939887152777777
 10
10.69215223524306
 20
9.109015570746527
 10
10.69215223524306
 20
9.109015570746527
 10
10.69395616319444
 20
9.124830457899305
 10
10.70025634765625
 20
9.141879611545138
 10
10.71795654296875
 20
9.147718641493055
 10
10.72848171657986
 20
9.152703179253471
 10
10.74073621961806
 20
9.146647135416666
 10
10.75016276041667
 20
9.14168972439236
 10
10.75016276041667
 20
9.14168972439236
 10
10.93886311848958
 20
9.029032389322916
 10
10.93886311848958
 20
9.029032389322916
 10
10.9508056640625
 20
9.021152072482638
 10
10.96047634548611
 20
9.006768120659721
 10
10.96019151475694
 20
8.992106119791666
 10
10.96019151475694
 20
8.992106119791666
 10
10.95680067274306
 20
8.756781684027777
 10
10.95680067274306
 20
8.756781684027777
 10
10.95454915364583
 20
8.746446397569445
 10
10.94946967230903
 20
8.739149305555555
 10
10.94220648871528
 20
8.732774522569445
 10
10.93344455295139
 20
8.728515625
 10
10.92511664496528
 20
8.723985460069445
 10
10.91537814670139
 20
8.727105034722221
 10
10.91537814670139
 20
8.727105034722221
 10
10.75887044270833
 20
8.83566623263889
 10
10.75887044270833
 20
8.83566623263889
 10
10.74754503038194
 20
8.845811631944445
 10
10.7457275390625
 20
8.863633897569445
 10
10.75608317057292
 20
8.875081380208332
 10
10.75608317057292
 20
8.875081380208332
 10
10.75608317057292
 20
8.875081380208332
 10
10.75608317057292
 20
8.875081380208332
 97
        0
 75
     0
 76
     1
 98
        0
  0
SPLINE
  5
42
330
1F
100
AcDbEntity
  8
Layer 1
370
     0
100
AcDbSpline
210
0.0
220
0.0
230
1.0
 70
    11
 71
     3
 72
    23
 73
    19
 74
     0
 42
0.0000000001
 43
0.0000000001
 40
0.0
 40
0.0
 40
0.0
 40
0.0
 40
1.0
 40
1.0
 40
1.0
 40
2.0
 40
2.0
 40
2.0
 40
3.0
 40
3.0
 40
3.0
 40
4.0
 40
4.0
 40
4.0
 40
5.0
 40
5.0
 40
5.0
 40
6.0
 40
6.0
 40
6.0
 40
6.0
 10
11.06700303819444
 20
9.06585693359375
 30
0.0
 10
11.06700303819444
 20
9.06585693359375
 30
0.0
 10
11.07333713107639
 20
9.06414794921875
 30
0.0
 10
11.07333713107639
 20
9.06414794921875
 30
0.0
 10
11.07333713107639
 20
9.06414794921875
 30
0.0
 10
11.01114230685764
 20
9.029269748263888
 30
0.0
 10
11.01114230685764
 20
9.029269748263888
 30
0.0
 10
11.00211588541667
 20
9.03341335720486
 30
0.0
 10
11.00016954210069
 20
9.03634304470486
 30
0.0
 10
10.99943712022569
 20
9.045362684461805
 30
0.0
 10
10.99943712022569
 20
9.045362684461805
 30
0.0
 10
11.05992296006944
 20
9.080247667100695
 30
0.0
 10
11.05992296006944
 20
9.080247667100695
 30
0.0
 10
11.05773247612847
 20
9.073655870225695
 30
0.0
 10
11.06187608506944
 20
9.068779839409721
 30
0.0
 10
11.06700303819444
 20
9.06585693359375
 30
0.0
 10
11.06700303819444
 20
9.06585693359375
 30
0.0
 10
11.06700303819444
 20
9.06585693359375
 30
0.0
 10
11.06700303819444
 20
9.06585693359375
 30
0.0
  0
HATCH
  5
43
330
1F
100
AcDbEntity
  8
Layer 1
 62
   179
420
  2301728
100
AcDbHatch
 10
0.0
 20
0.0
 30
0.0
210
0.0
220
0.0
230
1.0
  2
SOLID
 70
     1
 71
     0
 91
        1
 92
        1
 93
        1
 72
     4
 94
        3
 73
     0
 74
     1
 95
       23
 96
       19
 40
0.0
 40
0.0
 40
0.0
 40
0.0
 40
1.0
 40
1.0
 40
1.0
 40
2.0
 40
2.0
 40
2.0
 40
3.0
 40
3.0
 40
3.0
 40
4.0
 40
4.0
 40
4.0
 40
5.0
 40
5.0
 40
5.0
 40
6.0
 40
6.0
 40
6.0
 40
6.0
 10
11.06700303819444
 20
9.06585693359375
 10
11.06700303819444
 20
9.06585693359375
 10
11.07333713107639
 20
9.06414794921875
 10
11.07333713107639
 20
9.06414794921875
 10
11.07333713107639
 20
9.06414794921875
 10
11.01114230685764
 20
9.029269748263888
 10
11.01114230685764
 20
9.029269748263888
 10
11.00211588541667
 20
9.03341335720486
 10
11.00016954210069
 20
9.03634304470486
 10
10.99943712022569
 20
9.045362684461805
 10
10.99943712022569
 20
9.045362684461805
 10
11.05992296006944
 20
9.080247667100695
 10
11.05992296006944
 20
9.080247667100695
 10
11.05773247612847
 20
9.073655870225695
 10
11.06187608506944
 20
9.068779839409721
 10
11.06700303819444
 20
9.06585693359375
 10
11.06700303819444
 20
9.06585693359375
 10
11.06700303819444
 20
9.06585693359375
 10
11.06700303819444
 20
9.06585693359375
 97
        0
 75
     0
 76
     1
 98
        0
  0
SPLINE
  5
44
330
1F
100
AcDbEntity
  8
Layer 1
370
     0
100
AcDbSpline
210
0.0
220
0.0
230
1.0
 70
    11
 71
     3
 72
    20
 73
    16
 74
     0
 42
0.0000000001
 43
0.0000000001
 40
0.0
 40
0.0
 40
0.0
 40
0.0
 40
1.0
 40
1.0
 40
1.0
 40
2.0
 40
2.0
 40
2.0
 40
3.0
 40
3.0
 40
3.0
 40
4.0
 40
4.0
 40
4.0
 40
5.0
 40
5.0
 40
5.0
 40
5.0
 10
10.89058430989583
 20
9.064697265625
 30
0.0
 10
10.89058430989583
 20
9.064697265625
 30
0.0
 10
10.94814724392361
 20
9.029330783420138
 30
0.0
 10
10.94814724392361
 20
9.029330783420138
 30
0.0
 10
10.95839436848958
 20
9.03347439236111
 30
0.0
 10
10.96034749348958
 20
9.03908962673611
 30
0.0
 10
10.96082899305556
 20
9.048353407118055
 30
0.0
 10
10.96082899305556
 20
9.048353407118055
 30
0.0
 10
10.90180799696181
 20
9.083475748697916
 30
0.0
 10
10.90180799696181
 20
9.083475748697916
 30
0.0
 10
10.90156385633681
 20
9.071526421440971
 30
0.0
 10
10.89619954427083
 20
9.067376030815971
 30
0.0
 10
10.89058430989583
 20
9.064697265625
 30
0.0
 10
10.89058430989583
 20
9.064697265625
 30
0.0
 10
10.89058430989583
 20
9.064697265625
 30
0.0
 10
10.89058430989583
 20
9.064697265625
 30
0.0
  0
HATCH
  5
45
330
1F
100
AcDbEntity
  8
Layer 1
 62
   179
420
  2301728
100
AcDbHatch
 10
0.0
 20
0.0
 30
0.0
210
0.0
220
0.0
230
1.0
  2
SOLID
 70
     1
 71
     0
 91
        1
 92
        1
 93
        1
 72
     4
 94
        3
 73
     0
 74
     1
 95
       20
 96
       16
 40
0.0
 40
0.0
 40
0.0
 40
0.0
 40
1.0
 40
1.0
 40
1.0
 40
2.0
 40
2.0
 40
2.0
 40
3.0
 40
3.0
 40
3.0
 40
4.0
 40
4.0
 40
4.0
 40
5.0
 40
5.0
 40
5.0
 40
5.0
 10
10.89058430989583
 20
9.064697265625
 10
10.89058430989583
 20
9.064697265625
 10
10.94814724392361
 20
9.029330783420138
 10
10.94814724392361
 20
9.029330783420138
 10
10.95839436848958
 20
9.03347439236111
 10
10.96034749348958
 20
9.03908962673611
 10
10.96082899305556
 20
9.048353407118055
 10
10.96082899305556
 20
9.048353407118055
 10
10.90180799696181
 20
9.083475748697916
 10
10.90180799696181
 20
9.083475748697916
 10
10.90156385633681
 20
9.071526421440971
 10
10.89619954427083
 20
9.067376030815971
 10
10.89058430989583
 20
9.064697265625
 10
10.89058430989583
 20
9.064697265625
 10
10.89058430989583
 20
9.064697265625
 10
10.89058430989583
 20
9.064697265625
 97
        0
 75
     0
 76
     1
 98
        0
  0
SPLINE
  5
46
330
1F
100
AcDbEntity
  8
Layer 1
370
     0
100
AcDbSpline
210
0.0
220
0.0
230
1.0
 70
    11
 71
     3
 72
    20
 73
    16
 74
     0
 42
0.0000000001
 43
0.0000000001
 40
0.0
 40
0.0
 40
0.0
 40
0.0
 40
1.0
 40
1.0
 40
1.0
 40
2.0
 40
2.0
 40
2.0
 40
3.0
 40
3.0
 40
3.0
 40
4.0
 40
4.0
 40
4.0
 40
5.0
 40
5.0
 40
5.0
 40
5.0
 10
10.98837619357639
 20
8.929578993055555
 30
0.0
 10
10.98837619357639
 20
8.929578993055555
 30
0.0
 10
10.98885091145833
 20
8.997138129340277
 30
0.0
 10
10.98885091145833
 20
8.997138129340277
 30
0.0
 10
10.98117404513889
 20
9.003770616319445
 30
0.0
 10
10.97271728515625
 20
9.002448187934027
 30
0.0
 10
10.96560329861111
 20
8.99807400173611
 30
0.0
 10
10.96560329861111
 20
8.99807400173611
 30
0.0
 10
10.96596272786458
 20
8.929389105902777
 30
0.0
 10
10.96596272786458
 20
8.929389105902777
 30
0.0
 10
10.97496202256944
 20
8.935356987847221
 30
0.0
 10
10.98386637369792
 20
8.932996961805555
 30
0.0
 10
10.98837619357639
 20
8.929578993055555
 30
0.0
 10
10.98837619357639
 20
8.929578993055555
 30
0.0
 10
10.98837619357639
 20
8.929578993055555
 30
0.0
 10
10.98837619357639
 20
8.929578993055555
 30
0.0
  0
HATCH
  5
47
330
1F
100
AcDbEntity
  8
Layer 1
 62
   179
420
  2301728
100
AcDbHatch
 10
0.0
 20
0.0
 30
0.0
210
0.0
220
0.0
230
1.0
  2
SOLID
 70
     1
 71
     0
 91
        1
 92
        1
 93
        1
 72
     4
 94
        3
 73
     0
 74
     1
 95
       20
 96
       16
 40
0.0
 40
0.0
 40
0.0
 40
0.0
 40
1.0
 40
1.0
 40
1.0
 40
2.0
 40
2.0
 40
2.0
 40
3.0
 40
3.0
 40
3.0
 40
4.0
 40
4.0
 40
4.0
 40
5.0
 40
5.0
 40
5.0
 40
5.0
 10
10.98837619357639
 20
8.929578993055555
 10
10.98837619357639
 20
8.929578993055555
 10
10.98885091145833
 20
8.997138129340277
 10
10.98885091145833
 20
8.997138129340277
 10
10.98117404513889
 20
9.003770616319445
 10
10.97271728515625
 20
9.002448187934027
 10
10.96560329861111
 20
8.99807400173611
 10
10.96560329861111
 20
8.99807400173611
 10
10.96596272786458
 20
8.929389105902777
 10
10.96596272786458
 20
8.929389105902777
 10
10.97496202256944
 20
8.935356987847221
 10
10.98386637369792
 20
8.932996961805555
 10
10.98837619357639
 20
8.929578993055555
 10
10.98837619357639
 20
8.929578993055555
 10
10.98837619357639
 20
8.929578993055555
 10
10.98837619357639
 20
8.929578993055555
 97
        0
 75
     0
 76
     1
 98
        0
  0
ENDSEC
  0
SECTION
  2
OBJECTS
  0
DICTIONARY
  5
C
330
0
100
AcDbDictionary
281
     1
  3
ACAD_GROUP
350
D
  3
ACAD_LAYOUT
350
1A
  3
ACAD_MLINESTYLE
350
17
  3
ACAD_PLOTSETTINGS
350
19
  3
ACAD_PLOTSTYLENAME
350
E
  3
ACAD_TABLESTYLE
350
48
  3
ACAD_VISUALSTYLE
350
2A
  0
DICTIONARY
  5
D
102
{ACAD_REACTORS
330
C
102
}
330
C
100
AcDbDictionary
281
     1
  0
DICTIONARY
  5
1A
102
{ACAD_REACTORS
330
C
102
}
330
C
100
AcDbDictionary
281
     1
  3
Layout1
350
1E
  3
Layout2
350
26
  3
Model
350
22
  0
DICTIONARY
  5
17
102
{ACAD_REACTORS
330
C
102
}
330
C
100
AcDbDictionary
281
     1
  3
Standard
350
18
  0
DICTIONARY
  5
19
102
{ACAD_REACTORS
330
C
102
}
330
C
100
AcDbDictionary
281
     1
  0
ACDBDICTIONARYWDFLT
  5
E
102
{ACAD_REACTORS
330
C
102
}
330
C
100
AcDbDictionary
281
     1
  3
Normal
350
F
100
AcDbDictionaryWithDefault
340
F
  0
DICTIONARY
  5
48
102
{ACAD_REACTORS
330
C
102
}
330
C
100
AcDbDictionary
281
     1
  0
DICTIONARY
  5
2A
102
{ACAD_REACTORS
330
C
102
}
330
C
100
AcDbDictionary
281
     1
  3
2dWireframe
350
2F
  3
3D Hidden
350
31
  3
3dWireframe
350
30
  3
Basic
350
32
  3
Brighten
350
36
  3
ColorChange
350
3A
  3
Conceptual
350
34
  3
Dim
350
35
  3
Facepattern
350
39
  3
Flat
350
2B
  3
FlatWithEdges
350
2C
  3
Gouraud
350
2D
  3
GouraudWithEdges
350
2E
  3
Linepattern
350
38
  3
Realistic
350
33
  3
Thicken
350
37
  0
LAYOUT
  5
1E
102
{ACAD_REACTORS
330
1A
102
}
330
1A
100
AcDbPlotSettings
  1

  2
none_device
  4

  6

 40
0.0
 41
0.0
 42
0.0
 43
0.0
 44
0.0
 45
0.0
 46
0.0
 47
0.0
 48
0.0
 49
0.0
140
0.0
141
0.0
142
1.0
143
1.0
 70
   688
 72
     0
 73
     0
 74
     5
  7

 75
    16
 76
     0
 77
     2
 78
   300
147
1.0
148
0.0
149
0.0
100
AcDbLayout
  1
Layout1
 70
     1
 71
     1
 10
0.0
 20
0.0
 11
12.0
 21
9.0
 12
0.0
 22
0.0
 32
0.0
 14
1.000000000000000E+20
 24
1.000000000000000E+20
 34
1.000000000000000E+20
 15
-1.000000000000000E+20
 25
-1.000000000000000E+20
 35
-1.000000000000000E+20
146
0.0
 13
0.0
 23
0.0
 33
0.0
 16
1.0
 26
0.0
 36
0.0
 17
0.0
 27
1.0
 37
0.0
 76
     0
330
1B
  0
LAYOUT
  5
26
102
{ACAD_REACTORS
330
1A
102
}
330
1A
100
AcDbPlotSettings
  1

  2
none_device
  4

  6

 40
0.0
 41
0.0
 42
0.0
 43
0.0
 44
0.0
 45
0.0
 46
0.0
 47
0.0
 48
0.0
 49
0.0
140
0.0
141
0.0
142
1.0
143
1.0
 70
   688
 72
     0
 73
     0
 74
     5
  7

 75
    16
 76
     0
 77
     2
 78
   300
147
1.0
148
0.0
149
0.0
100
AcDbLayout
  1
Layout2
 70
     1
 71
     2
 10
0.0
 20
0.0
 11
0.0
 21
0.0
 12
0.0
 22
0.0
 32
0.0
 14
0.0
 24
0.0
 34
0.0
 15
0.0
 25
0.0
 35
0.0
146
0.0
 13
0.0
 23
0.0
 33
0.0
 16
1.0
 26
0.0
 36
0.0
 17
0.0
 27
1.0
 37
0.0
 76
     0
330
23
  0
LAYOUT
  5
22
102
{ACAD_REACTORS
330
1A
102
}
330
1A
100
AcDbPlotSettings
  1

  2
none_device
  4

  6

 40
0.0
 41
0.0
 42
0.0
 43
0.0
 44
0.0
 45
0.0
 46
0.0
 47
0.0
 48
0.0
 49
0.0
140
0.0
141
0.0
142
1.0
143
1.0
 70
  1712
 72
     0
 73
     0
 74
     0
  7

 75
     0
 76
     0
 77
     2
 78
   300
147
1.0
148
0.0
149
0.0
100
AcDbLayout
  1
Model
 70
     1
 71
     0
 10
0.0
 20
0.0
 11
12.0
 21
9.0
 12
0.0
 22
0.0
 32
0.0
 14
1.000000000000000E+20
 24
1.000000000000000E+20
 34
1.000000000000000E+20
 15
-1.000000000000000E+20
 25
-1.000000000000000E+20
 35
-1.000000000000000E+20
146
0.0
 13
0.0
 23
0.0
 33
0.0
 16
1.0
 26
0.0
 36
0.0
 17
0.0
 27
1.0
 37
0.0
 76
     0
330
1F
331
29
  0
MLINESTYLE
  5
18
102
{ACAD_REACTORS
330
17
102
}
330
17
100
AcDbMlineStyle
  2
Standard
 70
     0
  3

 62
   256
 51
90.0
 52
90.0
 71
     2
 49
0.5
 62
   256
  6
BYLAYER
 49
-0.5
 62
   256
  6
BYLAYER
  0
ACDBPLACEHOLDER
  5
F
102
{ACAD_REACTORS
330
E
102
}
330
E
  0
VISUALSTYLE
  5
2F
102
{ACAD_REACTORS
330
2A
102
}
330
2A
100
AcDbVisualStyle
  2
2dWireframe
 70
     4
 71
     0
 72
     2
 73
     0
 90
        0
 40
-0.6
 41
-30.0
 62
     5
 63
     7
421
 16777215
 74
     1
 91
        4
 64
     7
 65
   257
 75
     1
175
     1
 42
1.0
 92
        0
 66
   257
 43
1.0
 76
     1
 77
     6
 78
     2
 67
     7
 79
     5
170
     0
171
     0
290
     0
174
     0
 93
        1
 44
0.0
173
     0
291
     0
 45
0.0
1001
ACAD
1000
AcDbSavedByObjectVersion
1070
     0
  0
VISUALSTYLE
  5
31
102
{ACAD_REACTORS
330
2A
102
}
330
2A
100
AcDbVisualStyle
  2
3D Hidden
 70
     6
 71
     1
 72
     2
 73
     2
 90
        0
 40
-0.6
 41
-30.0
 62
     5
 63
     7
421
 16777215
 74
     2
 91
        2
 64
     7
 65
   257
 75
     2
175
     1
 42
40.0
 92
        0
 66
   257
 43
1.0
 76
     1
 77
     6
 78
     2
 67
     7
 79
     3
170
     0
171
     0
290
     0
174
     0
 93
        1
 44
0.0
173
     0
291
     0
 45
0.0
1001
ACAD
1000
AcDbSavedByObjectVersion
1070
     0
  0
VISUALSTYLE
  5
30
102
{ACAD_REACTORS
330
2A
102
}
330
2A
100
AcDbVisualStyle
  2
3dWireframe
 70
     5
 71
     0
 72
     2
 73
     0
 90
        0
 40
-0.6
 41
-30.0
 62
     5
 63
     7
421
 16777215
 74
     1
 91
        4
 64
     7
 65
   257
 75
     1
175
     1
 42
1.0
 92
        0
 66
   257
 43
1.0
 76
     1
 77
     6
 78
     2
 67
     7
 79
     5
170
     0
171
     0
290
     0
174
     0
 93
        1
 44
0.0
173
     0
291
     0
 45
0.0
1001
ACAD
1000
AcDbSavedByObjectVersion
1070
     0
  0
VISUALSTYLE
  5
32
102
{ACAD_REACTORS
330
2A
102
}
330
2A
100
AcDbVisualStyle
  2
Basic
 70
     7
 71
     1
 72
     0
 73
     1
 90
        0
 40
-0.6
 41
-30.0
 62
     5
 63
     7
421
 16777215
 74
     0
 91
        4
 64
     7
 65
   257
 75
     1
175
     1
 42
1.0
 92
        8
 66
     7
 43
1.0
 76
     1
 77
     6
 78
     2
 67
     7
 79
     5
170
     0
171
     0
290
     0
174
     0
 93
        1
 44
0.0
173
     0
291
     1
 45
0.0
1001
ACAD
1000
AcDbSavedByObjectVersion
1070
     0
  0
VISUALSTYLE
  5
36
102
{ACAD_REACTORS
330
2A
102
}
330
2A
100
AcDbVisualStyle
  2
Brighten
 70
    12
 71
     2
 72
     2
 73
     0
 90
        0
 40
-0.6
 41
-30.0
 62
     5
 63
     7
421
 16777215
 74
     1
 91
        4
 64
     7
 65
   257
 75
     1
175
     1
 42
1.0
 92
        8
 66
     7
 43
1.0
 76
     1
 77
     6
 78
     2
 67
     7
 79
     5
170
     0
171
     0
290
     0
174
     0
 93
        1
 44
50.0
173
     0
291
     1
 45
0.0
1001
ACAD
1000
AcDbSavedByObjectVersion
1070
     0
  0
VISUALSTYLE
  5
3A
102
{ACAD_REACTORS
330
2A
102
}
330
2A
100
AcDbVisualStyle
  2
ColorChange
 70
    16
 71
     2
 72
     2
 73
     3
 90
        0
 40
-0.6
 41
-30.0
 62
     5
 63
     8
421
  8421504
 74
     1
 91
        4
 64
     7
 65
   257
 75
     1
175
     1
 42
1.0
 92
        8
 66
     8
424
  8421504
 43
1.0
 76
     1
 77
     6
 78
     2
 67
     7
 79
     5
170
     0
171
     0
290
     0
174
     0
 93
        1
 44
0.0
173
     0
291
     1
 45
0.0
1001
ACAD
1000
AcDbSavedByObjectVersion
1070
     0
  0
VISUALSTYLE
  5
34
102
{ACAD_REACTORS
330
2A
102
}
330
2A
100
AcDbVisualStyle
  2
Conceptual
 70
     9
 71
     3
 72
     2
 73
     0
 90
        0
 40
-0.6
 41
-30.0
 62
     5
 63
     7
421
 16777215
 74
     2
 91
        2
 64
     7
 65
   257
 75
     1
175
     1
 42
40.0
 92
        8
 66
     7
 43
1.0
 76
     1
 77
     6
 78
     2
 67
     7
 79
     3
170
     0
171
     0
290
     0
174
     0
 93
        1
 44
0.0
173
     0
291
     0
 45
0.0
1001
ACAD
1000
AcDbSavedByObjectVersion
1070
     0
  0
VISUALSTYLE
  5
35
102
{ACAD_REACTORS
330
2A
102
}
330
2A
100
AcDbVisualStyle
  2
Dim
 70
    11
 71
     2
 72
     2
 73
     0
 90
        0
 40
-0.6
 41
-30.0
 62
     5
 63
     7
421
 16777215
 74
     1
 91
        4
 64
     7
 65
   257
 75
     1
175
     1
 42
1.0
 92
        8
 66
     7
 43
1.0
 76
     1
 77
     6
 78
     2
 67
     7
 79
     5
170
     0
171
     0
290
     0
174
     0
 93
        1
 44
-50.0
173
     0
291
     1
 45
0.0
1001
ACAD
1000
AcDbSavedByObjectVersion
1070
     0
  0
VISUALSTYLE
  5
39
102
{ACAD_REACTORS
330
2A
102
}
330
2A
100
AcDbVisualStyle
  2
Facepattern
 70
    15
 71
     2
 72
     2
 73
     0
 90
        0
 40
-0.6
 41
-30.0
 62
     5
 63
     7
421
 16777215
 74
     1
 91
        4
 64
     7
 65
   257
 75
     1
175
     1
 42
1.0
 92
        8
 66
     7
 43
1.0
 76
     1
 77
     6
 78
     2
 67
     7
 79
     5
170
     0
171
     0
290
     0
174
     0
 93
        1
 44
0.0
173
     0
291
     1
 45
0.0
1001
ACAD
1000
AcDbSavedByObjectVersion
1070
     0
  0
VISUALSTYLE
  5
2B
102
{ACAD_REACTORS
330
2A
102
}
330
2A
100
AcDbVisualStyle
  2
Flat
 70
     0
 71
     2
 72
     1
 73
     1
 90
        2
 40
-0.6
 41
30.0
 62
     5
 63
     7
421
 16777215
 74
     0
 91
        4
 64
     7
 65
   257
 75
     1
175
     1
 42
1.0
 92
        8
 66
     7
 43
1.0
 76
     1
 77
     6
 78
     2
 67
     7
 79
     5
170
     0
171
     0
290
     0
174
     0
 93
       13
 44
0.0
173
     0
291
     1
 45
0.0
1001
ACAD
1000
AcDbSavedByObjectVersion
1070
     0
  0
VISUALSTYLE
  5
2C
102
{ACAD_REACTORS
330
2A
102
}
330
2A
100
AcDbVisualStyle
  2
FlatWithEdges
 70
     1
 71
     2
 72
     1
 73
     1
 90
        2
 40
-0.6
 41
30.0
 62
     5
 63
     7
421
 16777215
 74
     1
 91
        4
 64
     7
 65
   257
 75
     1
175
     1
 42
1.0
 92
        0
 66
   257
 43
1.0
 76
     1
 77
     6
 78
     2
 67
     7
 79
     5
170
     0
171
     0
290
     0
174
     0
 93
       13
 44
0.0
173
     0
291
     1
 45
0.0
1001
ACAD
1000
AcDbSavedByObjectVersion
1070
     0
  0
VISUALSTYLE
  5
2D
102
{ACAD_REACTORS
330
2A
102
}
330
2A
100
AcDbVisualStyle
  2
Gouraud
 70
     2
 71
     2
 72
     2
 73
     1
 90
        2
 40
-0.6
 41
30.0
 62
     5
 63
     7
421
 16777215
 74
     0
 91
        4
 64
     7
 65
   257
 75
     1
175
     1
 42
1.0
 92
        0
 66
     7
 43
1.0
 76
     1
 77
     6
 78
     2
 67
     7
 79
     5
170
     0
171
     0
290
     0
174
     0
 93
       13
 44
0.0
173
     0
291
     1
 45
0.0
1001
ACAD
1000
AcDbSavedByObjectVersion
1070
     0
  0
VISUALSTYLE
  5
2E
102
{ACAD_REACTORS
330
2A
102
}
330
2A
100
AcDbVisualStyle
  2
GouraudWithEdges
 70
     3
 71
     2
 72
     2
 73
     1
 90
        2
 40
-0.6
 41
30.0
 62
     5
 63
     7
421
 16777215
 74
     1
 91
        4
 64
     7
 65
   257
 75
     1
175
     1
 42
1.0
 92
        0
 66
   257
 43
1.0
 76
     1
 77
     6
 78
     2
 67
     7
 79
     5
170
     0
171
     0
290
     0
174
     0
 93
       13
 44
0.0
173
     0
291
     1
 45
0.0
1001
ACAD
1000
AcDbSavedByObjectVersion
1070
     0
  0
VISUALSTYLE
  5
38
102
{ACAD_REACTORS
330
2A
102
}
330
2A
100
AcDbVisualStyle
  2
Linepattern
 70
    14
 71
     2
 72
     2
 73
     0
 90
        0
 40
-0.6
 41
-30.0
 62
     5
 63
     7
421
 16777215
 74
     1
 91
        4
 64
     7
 65
   257
 75
     7
175
     7
 42
1.0
 92
        8
 66
     7
 43
1.0
 76
     1
 77
     6
 78
     2
 67
     7
 79
     5
170
     0
171
     0
290
     0
174
     0
 93
        1
 44
0.0
173
     0
291
     1
 45
0.0
1001
ACAD
1000
AcDbSavedByObjectVersion
1070
     0
  0
VISUALSTYLE
  5
33
102
{ACAD_REACTORS
330
2A
102
}
330
2A
100
AcDbVisualStyle
  2
Realistic
 70
     8
 71
     2
 72
     2
 73
     0
 90
        0
 40
-0.6
 41
-30.0
 62
     5
 63
     7
421
 16777215
 74
     1
 91
        0
 64
     7
 65
   257
 75
     1
175
     1
 42
1.0
 92
        8
 66
     8
424
  7895160
 43
1.0
 76
     1
 77
     6
 78
     2
 67
     7
 79
     5
170
     0
171
     0
290
     0
174
     0
 93
       13
 44
0.0
173
     0
291
     0
 45
0.0
1001
ACAD
1000
AcDbSavedByObjectVersion
1070
     0
  0
VISUALSTYLE
  5
37
102
{ACAD_REACTORS
330
2A
102
}
330
2A
100
AcDbVisualStyle
  2
Thicken
 70
    13
 71
     2
 72
     2
 73
     0
 90
        0
 40
-0.6
 41
-30.0
 62
     5
 63
     7
421
 16777215
 74
     1
 91
        4
 64
     7
 65
   257
 75
     1
175
     1
 42
1.0
 92
       12
 66
     7
 43
1.0
 76
     1
 77
     6
 78
     2
 67
     7
 79
     5
170
     0
171
     0
290
     0
174
     0
 93
        1
 44
0.0
173
     0
291
     1
 45
0.0
1001
ACAD
1000
AcDbSavedByObjectVersion
1070
     0
  0
ENDSEC
  0
EOF
